<mxfile host="app.diagrams.net" modified="2023-05-10T02:00:51.372Z" agent="Mozilla/5.0 (Windows NT 10.0; Win64; x64) AppleWebKit/537.36 (KHTML, like Gecko) Chrome/113.0.0.0 Safari/537.36 Edg/113.0.1774.35" version="21.1.8" etag="7z13Cxl6NjC2toTpX7kf" type="github">
  <diagram name="Page-1" id="eo_f-qf-5p2jBTF7onJF">
    <mxGraphModel>
      <root>
        <mxCell id="0" />
        <mxCell id="1" parent="0" />
      </root>
    </mxGraphModel>
  </diagram>
</mxfile>
